<?xml version="1.0" encoding="UTF-8"?>
<svg xmlns="http://www.w3.org/2000/svg" xmlns:xlink="http://www.w3.org/1999/xlink" viewBox="0 0 128 128" width="128px" height="128px">
<defs>
<linearGradient id="linear0" gradientUnits="userSpaceOnUse" x1="86" y1="26.875" x2="86" y2="147.143311" gradientTransform="matrix(0.744186,0,0,0.744186,0,0)">
<stop offset="0" style="stop-color:rgb(44.705883%,40.392157%,47.843137%);stop-opacity:1;"/>
<stop offset="1" style="stop-color:rgb(98.823529%,73.333335%,69.803923%);stop-opacity:1;"/>
</linearGradient>
<linearGradient id="linear1" gradientUnits="userSpaceOnUse" x1="85.247498" y1="65.171883" x2="85.247498" y2="105.489754" gradientTransform="matrix(0.744186,0,0,0.744186,0,0)">
<stop offset="0" style="stop-color:rgb(66.666669%,63.137257%,69.01961%);stop-opacity:1;"/>
<stop offset="1" style="stop-color:rgb(100%,100%,100%);stop-opacity:1;"/>
</linearGradient>
<linearGradient id="linear2" gradientUnits="userSpaceOnUse" x1="86.569748" y1="26.875" x2="86.569748" y2="147.143311" gradientTransform="matrix(0.744186,0,0,0.744186,0,0)">
<stop offset="0" style="stop-color:rgb(44.705883%,40.392157%,47.843137%);stop-opacity:1;"/>
<stop offset="1" style="stop-color:rgb(98.823529%,73.333335%,69.803923%);stop-opacity:1;"/>
</linearGradient>
</defs>
<g id="surface21337390">
<path style=" stroke:none;fill-rule:nonzero;fill:url(#linear0);" d="M 64 106.003906 C 51.285156 106.003906 38.566406 105.613281 25.402344 104.835938 C 15.480469 104.246094 7.480469 96.351562 6.785156 86.460938 C 5.742188 71.554688 5.742188 56.441406 6.785156 41.539062 C 7.480469 31.648438 15.480469 23.75 25.402344 23.164062 C 51.734375 21.609375 76.269531 21.609375 102.597656 23.164062 C 112.519531 23.75 120.519531 31.648438 121.214844 41.539062 C 122.257812 56.441406 122.257812 71.554688 121.214844 86.457031 C 120.519531 96.347656 112.519531 104.246094 102.597656 104.835938 C 89.433594 105.613281 76.714844 106.003906 64 106.003906 Z M 102.363281 100.84375 L 102.480469 102.839844 L 102.363281 100.84375 C 110.28125 100.375 116.671875 94.070312 117.226562 86.179688 C 118.257812 71.464844 118.257812 56.539062 117.222656 41.816406 C 116.671875 33.929688 110.28125 27.625 102.363281 27.15625 C 76.1875 25.613281 51.8125 25.613281 25.636719 27.15625 C 17.71875 27.625 11.332031 33.929688 10.777344 41.820312 C 9.746094 56.535156 9.746094 71.460938 10.777344 86.183594 C 11.328125 94.070312 17.71875 100.375 25.636719 100.84375 C 51.8125 102.386719 76.1875 102.386719 102.363281 100.84375 Z M 102.363281 100.84375 "/>
<path style=" stroke:none;fill-rule:nonzero;fill:url(#linear1);" d="M 50 79.679688 L 50 48.320312 L 76.878906 64 Z M 50 79.679688 "/>
<path style=" stroke:none;fill-rule:nonzero;fill:url(#linear2);" d="M 48 83.160156 L 48 44.839844 L 80.851562 64 Z M 52 51.800781 L 52 76.195312 L 72.910156 64 Z M 52 51.800781 "/>
</g>
</svg>
